<svg xmlns="http://www.w3.org/2000/svg" width="76.652" height="76.652" viewBox="0 0 76.652 76.652"><defs><style>.a{fill:#17a2b8;}</style></defs><path class="a" d="M70.9,0H5.749A5.756,5.756,0,0,0,0,5.749V70.9a5.756,5.756,0,0,0,5.749,5.749H70.9A5.756,5.756,0,0,0,76.652,70.9V5.749A5.756,5.756,0,0,0,70.9,0ZM74.1,70.9A3.2,3.2,0,0,1,70.9,74.1H5.749A3.2,3.2,0,0,1,2.555,70.9V5.749A3.2,3.2,0,0,1,5.749,2.555H70.9A3.2,3.2,0,0,1,74.1,5.749Z"/><g transform="translate(5.11 5.11)"><path class="a" d="M40.522,34.133h-5.11a1.278,1.278,0,0,0-1.277,1.277v5.11A1.278,1.278,0,0,0,35.411,41.8h5.11A1.278,1.278,0,0,0,41.8,40.521v-5.11A1.278,1.278,0,0,0,40.522,34.133Zm-1.277,5.11H36.689V36.688h2.555Z" transform="translate(-34.134 -34.133)"/></g><g transform="translate(15.331 5.11)"><path class="a" d="M108.789,34.133h-5.11A1.278,1.278,0,0,0,102.4,35.41v5.11a1.278,1.278,0,0,0,1.277,1.277h5.11a1.278,1.278,0,0,0,1.277-1.277v-5.11A1.278,1.278,0,0,0,108.789,34.133Zm-1.278,5.11h-2.555V36.688h2.555Z" transform="translate(-102.401 -34.133)"/></g><g transform="translate(25.551 5.11)"><path class="a" d="M177.055,34.133h-5.11a1.278,1.278,0,0,0-1.277,1.277v5.11a1.278,1.278,0,0,0,1.277,1.277h5.11a1.278,1.278,0,0,0,1.277-1.277v-5.11A1.278,1.278,0,0,0,177.055,34.133Zm-1.277,5.11h-2.555V36.688h2.555Z" transform="translate(-170.667 -34.133)"/></g><g transform="translate(0 15.33)"><rect class="a" width="76.652" height="2.555"/></g><g transform="translate(6.388 21.718)"><path class="a" d="M59.275,145.067H43.944a1.278,1.278,0,0,0-1.277,1.277v45.991a1.278,1.278,0,0,0,1.277,1.277h15.33a1.278,1.278,0,0,0,1.277-1.277V146.345A1.278,1.278,0,0,0,59.275,145.067ZM58,191.058H45.222V147.622H58v43.436Z" transform="translate(-42.667 -145.067)"/></g><g transform="translate(52.379 21.718)"><path class="a" d="M366.475,145.067h-15.33a1.278,1.278,0,0,0-1.277,1.277v45.991a1.278,1.278,0,0,0,1.277,1.277h15.33a1.278,1.278,0,0,0,1.277-1.277V146.345A1.278,1.278,0,0,0,366.475,145.067ZM365.2,191.058H352.422V147.622H365.2Z" transform="translate(-349.867 -145.067)"/></g><g transform="translate(29.383 21.718)"><path class="a" d="M212.875,145.067h-15.33a1.278,1.278,0,0,0-1.277,1.277v45.991a1.278,1.278,0,0,0,1.277,1.277h15.33a1.278,1.278,0,0,0,1.277-1.277V146.345A1.278,1.278,0,0,0,212.875,145.067ZM211.6,191.058H198.822V147.622H211.6Z" transform="translate(-196.267 -145.067)"/></g></svg>