<svg xmlns="http://www.w3.org/2000/svg" width="34.951" height="34.968" viewBox="0 0 34.951 34.968"><defs><style>.a{fill:#303658;}</style></defs><g transform="translate(-0.117)"><g transform="translate(0.117)"><path class="a" d="M29.95,5.125A17.479,17.479,0,0,0,4.076,28.569a6.56,6.56,0,0,1-2.753,3.185,1.631,1.631,0,0,0,.469,3.075,8.318,8.318,0,0,0,1.237.1h0a11.3,11.3,0,0,0,6.282-2.035A17.484,17.484,0,0,0,29.95,5.125Zm-1.4,23.319A15.51,15.51,0,0,1,9.743,30.853a.984.984,0,0,0-1.106.066,9.414,9.414,0,0,1-5.484,2.013A9.949,9.949,0,0,0,6.148,28.8a1,1,0,0,0-.168-1.054,15.5,15.5,0,1,1,22.572.7Z" transform="translate(-0.117)"/><path class="a" d="M140.914,160H126.271a.988.988,0,0,0,0,1.977h14.643a.988.988,0,0,0,0-1.977Z" transform="translate(-116.119 -148.286)"/><path class="a" d="M140.914,225.3H126.271a.988.988,0,0,0,0,1.977h14.643a.988.988,0,0,0,0-1.977Z" transform="translate(-116.119 -208.805)"/><path class="a" d="M140.914,290.6H126.271a.988.988,0,0,0,0,1.977h14.643a.988.988,0,0,0,0-1.977Z" transform="translate(-116.119 -269.324)"/></g></g></svg>