<svg xmlns="http://www.w3.org/2000/svg" width="21.5" height="18.5" viewBox="0 0 21.5 18.5"><defs><style>.a{fill:#4d4d4d;fill-rule:evenodd;}</style></defs><path class="a" d="M1.25,6A2.75,2.75,0,0,1,4,3.25H20A2.75,2.75,0,0,1,22.75,6V16A2.75,2.75,0,0,1,20,18.75H14.214l.75,1.5H17a.75.75,0,0,1,0,1.5H7a.75.75,0,0,1,0-1.5H9.036l.75-1.5H4A2.75,2.75,0,0,1,1.25,16ZM20,17.25H4A1.25,1.25,0,0,1,2.75,16V6A1.25,1.25,0,0,1,4,4.75H20A1.25,1.25,0,0,1,21.25,6V16A1.25,1.25,0,0,1,20,17.25Z" transform="translate(-1.25 -3.25)"/></svg>