<svg xmlns="http://www.w3.org/2000/svg" width="75.73" height="64.079" viewBox="0 0 75.73 64.079"><defs><style>.a{opacity:0.3;}.b{fill:#393d48;}</style></defs><g class="a" transform="translate(0 -36.545)"><g transform="translate(0 36.545)"><path class="b" d="M26.214,65.672H16.019A4.351,4.351,0,0,1,11.65,61.3V59.847a11.225,11.225,0,0,1,3.414-8.238A11.228,11.228,0,0,1,23.3,48.2h2.912a2.953,2.953,0,0,0,2.912-2.912V39.458a2.953,2.953,0,0,0-2.912-2.913H23.3a22.707,22.707,0,0,0-9.034,1.843A23.081,23.081,0,0,0,1.843,50.813,22.7,22.7,0,0,0,0,59.847V91.886a8.427,8.427,0,0,0,2.548,6.19,8.429,8.429,0,0,0,6.19,2.548H26.215a8.7,8.7,0,0,0,8.738-8.738V74.41a8.7,8.7,0,0,0-8.739-8.738Z" transform="translate(0 -36.545)"/><path class="b" d="M288.224,68.22a8.427,8.427,0,0,0-6.189-2.548H271.84a4.351,4.351,0,0,1-4.368-4.369V59.847A11.652,11.652,0,0,1,279.123,48.2h2.912a2.954,2.954,0,0,0,2.913-2.912V39.458a2.954,2.954,0,0,0-2.913-2.913h-2.912a22.713,22.713,0,0,0-9.036,1.843,23.087,23.087,0,0,0-12.423,12.425,22.7,22.7,0,0,0-1.844,9.034V91.886a8.7,8.7,0,0,0,8.738,8.738h17.476a8.7,8.7,0,0,0,8.737-8.738V74.41A8.427,8.427,0,0,0,288.224,68.22Z" transform="translate(-215.041 -36.545)"/></g></g></svg>