<svg xmlns="http://www.w3.org/2000/svg" width="97.456" height="114.277" viewBox="0 0 97.456 114.277"><defs><style>.a{fill:#fff;}</style></defs><g transform="translate(-37.681 0)"><g transform="translate(37.681 0)"><g transform="translate(0 0)"><path class="a" d="M133.368,19.733A190.092,190.092,0,0,1,87.632.334a2.4,2.4,0,0,0-2.444,0,184.887,184.887,0,0,1-45.738,19.4,2.4,2.4,0,0,0-1.769,2.319V46.613A70.661,70.661,0,0,0,59.138,98.24c10.538,10.326,22.814,16.037,27.271,16.037s16.732-5.71,27.271-16.037a70.661,70.661,0,0,0,21.456-51.627V22.051A2.4,2.4,0,0,0,133.368,19.733Zm-3.039,26.88a65.948,65.948,0,0,1-20.014,48.192C99.952,104.96,88.872,109.468,86.41,109.468S72.866,104.96,62.5,94.805A65.949,65.949,0,0,1,42.489,46.613V23.876A189.317,189.317,0,0,0,86.41,5.189a195.308,195.308,0,0,0,43.919,18.686Z" transform="translate(-37.681 0)"/><path class="a" d="M98.23,100.467a2.4,2.4,0,0,0-3.118-1.355c-4.294,1.692-8.7,3.25-13.1,4.629a2.4,2.4,0,0,0-1.684,2.294v9.283a2.4,2.4,0,0,0,4.808,0v-7.526c3.946-1.277,7.888-2.689,11.74-4.207A2.4,2.4,0,0,0,98.23,100.467Z" transform="translate(-70.809 -76.859)"/><path class="a" d="M172.612,91.027a2.4,2.4,0,0,0,.964-.2l.044-.019a2.4,2.4,0,1,0-1.941-4.4l-.039.017a2.4,2.4,0,0,0,.972,4.6Z" transform="translate(-140.624 -66.964)"/><path class="a" d="M321.408,345.92a2.4,2.4,0,0,0-3.327.7,58.51,58.51,0,0,1-6.908,8.629,61.4,61.4,0,0,1-6.9,6.135,2.4,2.4,0,1,0,2.915,3.823,66.262,66.262,0,0,0,7.436-6.616,63.256,63.256,0,0,0,7.477-9.341A2.4,2.4,0,0,0,321.408,345.92Z" transform="translate(-244.039 -268.408)"/><path class="a" d="M277.9,432.3l-.138.081a2.4,2.4,0,1,0,2.408,4.16l.159-.094A2.4,2.4,0,1,0,277.9,432.3Z" transform="translate(-223.246 -335.553)"/><path class="a" d="M136.161,172.325a7.817,7.817,0,1,0-11.054,11.055L139.3,197.574a7.819,7.819,0,0,0,11.055,0l29.632-29.632a7.817,7.817,0,0,0-11.055-11.054l-24.1,24.1Zm36.171-12.038a3.009,3.009,0,1,1,4.256,4.255l-29.631,29.632a3.011,3.011,0,0,1-4.256,0l-14.194-14.193a3.009,3.009,0,0,1,4.256-4.256l10.366,10.367a2.4,2.4,0,0,0,3.4,0Z" transform="translate(-103.818 -120.093)"/></g></g></g></svg>